<svg xmlns="http://www.w3.org/2000/svg" width="288" height="288" viewBox="0 0 288 288" fill="none" stroke="#000" stroke-width="1.15" stroke-linecap="round" stroke-linejoin="round">
  <!-- Package -->
  <g transform="translate(24 24) scale(1.2)">
    <path d="M11 21.73a2 2 0 0 0 2 0l7-4A2 2 0 0 0 21 16V8a2 2 0 0 0-1-1.73l-7-4a2 2 0 0 0-2 0l-7 4A2 2 0 0 0 3 8v8a2 2 0 0 0 1 1.73z"/>
    <path d="M12 22V12"/>
    <path d="m3.3 7 7.703 4.734a2 2 0 0 0 1.994 0L20.7 7"/>
  </g>
  <!-- Receipt -->
  <g transform="translate(120 24) scale(1.2)">
    <path d="M4 2v20l2-1 2 1 2-1 2 1 2-1 2 1 2-1 2 1V2l-2 1-2-1-2 1-2-1-2 1-2-1-2 1Z"/>
    <path d="M8 8h8"/>
    <path d="M8 12h8"/>
    <path d="M8 16h5"/>
  </g>
  <!-- Shopping bag -->
  <g transform="translate(216 24) scale(1.2)">
    <path d="M6 2 3 6v14a2 2 0 0 0 2 2h14a2 2 0 0 0 2-2V6l-3-4Z"/>
    <path d="M3 6h18"/>
    <path d="M16 10a4 4 0 0 1-8 0"/>
  </g>
  <!-- Bar chart -->
  <g transform="translate(72 120) scale(1.2)">
    <path d="M3 3v18h18"/>
    <path d="M18 17V9"/>
    <path d="M13 17V5"/>
    <path d="M8 17v-3"/>
  </g>
  <!-- Barcode -->
  <g transform="translate(168 120) scale(1.2)">
    <path d="M3 5v14"/>
    <path d="M7 5v14"/>
    <path d="M10 5v14"/>
    <path d="M15 5v14"/>
    <path d="M18 5v14"/>
    <path d="M21 5v14"/>
  </g>
  <!-- Tag -->
  <g transform="translate(24 216) scale(1.2)">
    <path d="M12.586 2.586A2 2 0 0 0 11.172 2H4a2 2 0 0 0-2 2v7.172a2 2 0 0 0 .586 1.414l8.704 8.704a2.426 2.426 0 0 0 3.42 0l6.58-6.58a2.426 2.426 0 0 0 0-3.42z"/>
    <circle cx="7.5" cy="7.5" r="1"/>
  </g>
  <!-- Store -->
  <g transform="translate(120 216) scale(1.2)">
    <path d="m2 7 4.41-4.41A2 2 0 0 1 7.83 2h8.34a2 2 0 0 1 1.42.59L22 7"/>
    <path d="M4 12v8a2 2 0 0 0 2 2h12a2 2 0 0 0 2-2v-8"/>
    <path d="M15 22v-4a2 2 0 0 0-2-2h-2a2 2 0 0 0-2 2v4"/>
    <path d="M2 7h20"/>
    <path d="M22 7v3a2 2 0 0 1-2 2 2.7 2.7 0 0 1-1.59-.63.7.7 0 0 0-.82 0A2.7 2.7 0 0 1 16 12a2.7 2.7 0 0 1-1.59-.63.7.7 0 0 0-.82 0A2.7 2.7 0 0 1 12 12a2.7 2.7 0 0 1-1.59-.63.7.7 0 0 0-.82 0A2.7 2.7 0 0 1 8 12a2.7 2.7 0 0 1-1.59-.63.7.7 0 0 0-.82 0A2.7 2.7 0 0 1 4 12a2 2 0 0 1-2-2V7"/>
  </g>
  <!-- Coins -->
  <g transform="translate(216 216) scale(1.2)">
    <circle cx="8" cy="8" r="6"/>
    <path d="M18.09 10.37A6 6 0 1 1 10.34 18"/>
    <path d="M7 6h1v4"/>
  </g>
  <!-- Trending up -->
  <g transform="translate(264 120) scale(1.2)">
    <path d="M16 7h6v6"/>
    <path d="m22 7-8.5 8.5-5-5L2 17"/>
  </g>
  <g transform="translate(-24 120) scale(1.2)">
    <path d="M16 7h6v6"/>
    <path d="m22 7-8.5 8.5-5-5L2 17"/>
  </g>
  <!-- Quiet dots -->
  <g fill="#000" stroke="none">
    <circle cx="96" cy="96" r="1.2"/>
    <circle cx="192" cy="96" r="1.2"/>
    <circle cx="48" cy="192" r="1.2"/>
    <circle cx="144" cy="192" r="1.2"/>
    <circle cx="240" cy="192" r="1.2"/>
  </g>
</svg>
